<?xml version="1.0" encoding="utf-8"?>
<!-- Generator: Adobe Illustrator 27.5.0, SVG Export Plug-In . SVG Version: 6.00 Build 0)  -->
<svg version="1.1" xmlns="http://www.w3.org/2000/svg" xmlns:xlink="http://www.w3.org/1999/xlink" x="0px" y="0px"
	 viewBox="0 0 500 500" style="enable-background:new 0 0 500 500;" xml:space="preserve">
<g id="BACKGROUND">
	<rect style="fill:#FFFFFF;" width="500" height="500"/>
	<rect y="31" style="fill:#E8EEF8;" width="398" height="323.556"/>
</g>
<g id="OBJECTS">
	<g>
		
			<rect x="177.267" y="7.912" transform="matrix(-1.836970e-16 1 -1 -1.836970e-16 477.9118 -111.2673)" style="fill:#D8A163;" width="234.645" height="350.821"/>
		<rect x="129.179" y="76" style="fill:#FEFCF6;" width="330.821" height="214.645"/>
	</g>
	<g>
		<rect x="302.663" y="83.724" style="fill:#EDEDF3;" width="73.935" height="61.678"/>
		<path style="fill:#FF9E00;" d="M357.892,115.718c0.016-0.622,0.039-1.27,0.332-1.818c0.696-1.304,2.481-1.438,3.959-1.403
			c1.096,0.026,2.354,0.132,2.998,1.02c0.464,0.641,0.454,1.497,0.425,2.288c-0.225,6.09-0.451,12.181-0.676,18.271
			c-0.023,0.623-0.084,1.327-0.569,1.718c-0.411,0.332-0.99,0.325-1.517,0.302c-1.454-0.064-4.353,0.415-5.302-0.812
			c-0.796-1.028-0.037-4.63-0.005-5.842C357.654,124.868,357.771,120.293,357.892,115.718z"/>
		<path style="fill:#FF9E00;" d="M339.941,115.718c-0.016-0.622-0.039-1.27-0.332-1.818c-0.696-1.304-2.481-1.438-3.959-1.403
			c-1.096,0.026-2.354,0.132-2.998,1.02c-0.464,0.641-0.454,1.497-0.425,2.288c0.225,6.09,0.451,12.181,0.676,18.271
			c0.023,0.623,0.084,1.327,0.569,1.718c0.411,0.332,0.99,0.325,1.517,0.302c1.454-0.064,4.353,0.415,5.302-0.812
			c0.796-1.028,0.037-4.63,0.005-5.842C340.179,124.868,340.062,120.293,339.941,115.718z"/>
		<path style="fill:#30A8FF;" d="M320.303,133.033c0.029,0.962,0.107,2.037,0.822,2.681c1.69,1.523,4.768-0.929,6.54,0.497
			c-0.199-10.419-0.398-20.838-0.597-31.257c-0.023-1.223-0.079-2.542-0.835-3.503c-1.246-1.585-4.872-1.826-6.236-0.234
			c-1.594,1.861-0.434,6.848-0.367,9.102C319.854,117.891,320.079,125.462,320.303,133.033z"/>
		<rect x="320.349" y="101.358" style="fill:none;stroke:#6178BA;stroke-miterlimit:10;" width="7.415" height="35.454"/>
		<path style="fill:#30A8FF;" d="M345.509,133.033c0.029,0.962,0.107,2.037,0.822,2.681c1.69,1.523,4.768-0.929,6.54,0.497
			c-0.199-10.419-0.398-20.838-0.597-31.257c-0.023-1.223-0.079-2.542-0.835-3.503c-1.246-1.585-4.872-1.826-6.235-0.234
			c-1.594,1.861-0.434,6.848-0.367,9.102C345.06,117.891,345.284,125.462,345.509,133.033z"/>
		<rect x="332.216" y="112.994" style="fill:none;stroke:#6178BA;stroke-miterlimit:10;" width="7.415" height="23.817"/>
		<rect x="344.084" y="102.59" style="fill:none;stroke:#6178BA;stroke-miterlimit:10;" width="7.415" height="34.222"/>
		<rect x="355.951" y="112.994" style="fill:none;stroke:#6178BA;stroke-miterlimit:10;" width="7.415" height="23.817"/>
		<polyline style="fill:none;stroke:#6178BA;stroke-miterlimit:10;" points="311.361,92.884 311.361,136.812 371.129,136.812 		"/>
	</g>
	<g>
		<path style="fill:#5CBD77;" d="M241.114,208.571c-3.796,4.507-5.364,36.74-4.371,46.662c0.993,9.922,4.046,15.34,6.601,31.49
			c1.708,10.795,8.196,31.771,8.196,31.771l5.176-31.34c0,0-2.157-12.941-4.745-30.196c-2.588-17.255-0.431-48.363-0.431-48.363
			S248.805,199.439,241.114,208.571z"/>
		<path style="fill:#F0C1AE;" d="M269.658,301.943c-1.229,2.805,8.126,56.865,6.144,70.453c-0.939,6.432,4.628,54.356,5.922,67.297
			h10.784c0,0,0.475-53.467,3.097-67.82c5.087-27.847,1.294-63.392,1.294-63.392L269.658,301.943z"/>
		<path style="fill:#F0C1AE;" d="M251.109,294.873c-1.229,2.805-1.885,63.934-3.868,77.522c-0.939,6.432,4.628,54.356,5.922,67.297
			h10.784c0,0,0.476-53.467,3.097-67.82c5.087-27.847,10.738-67.979,10.738-67.979L251.109,294.873z"/>
		<polygon style="fill:#F0C1AE;" points="344.102,148.161 342.996,141.016 343.81,136.747 347.023,134.396 348.319,137.321 		"/>
		<g>
			<path style="fill:#EA6339;" d="M352.354,130.447l2.044,1.784c0.004,0.003,0.004,0.008,0.001,0.012l-11.944,13.688
				c-0.119,0.136-0.326,0.15-0.463,0.031l-1.563-1.364c-0.136-0.119-0.151-0.326-0.031-0.463l11.944-13.688
				C352.345,130.445,352.35,130.444,352.354,130.447z"/>
			<path style="fill:#EA6339;" d="M351.25,132.202l1.558,1.36c0.003,0.003,0.003,0.007,0.001,0.01l-11.748,13.463
				c-0.228,0.261-0.625,0.288-0.886,0.06l-0.624-0.544c-0.261-0.228-0.288-0.625-0.06-0.886l11.748-13.462
				C351.243,132.199,351.247,132.199,351.25,132.202z"/>
			<path style="fill:#EA6339;" d="M356.158,128.151L356.158,128.151c0.212,0.185,0.234,0.507,0.049,0.72l-4.179,4.789
				c-0.185,0.212-0.507,0.234-0.72,0.049l0,0c-0.212-0.185-0.234-0.507-0.049-0.719l4.179-4.789
				C355.624,127.988,355.946,127.966,356.158,128.151z"/>
			<polygon style="fill:#EA6339;" points="352.358,130.451 354.394,132.227 355.902,129.391 354.964,128.572 			"/>
			
				<rect x="347.737" y="132.438" transform="matrix(-0.7535 -0.6575 0.6575 -0.7535 520.0963 469.7477)" style="fill:#2E3190;" width="0.758" height="9.858"/>
		</g>
		<path style="fill:#F0C1AE;" d="M339.879,154.675c0,0,3.791-7.329,4.318-9.104c0.527-1.775,2.732-5.229,2.923-7.051
			c0.281-2.673-0.864-2.832-0.002-5.275c0.333-0.945,3.261-1.248,3.261-1.248l-0.43,3.981l2.542,1.87l0.576,2.206
			c1.007,0.143,2.111,2.973,2.111,2.973l-0.622,3.885c0,0-2.828,3.982-3.883,5.133c-1.055,1.151-3.883,6.092-3.883,6.092
			L339.879,154.675z"/>
		<path style="fill:#626BFF;" d="M244.477,281.16c0,0-4.627,38.187-3.227,60.147c0,0,14.85,4.499,30.32,5.477
			c15.47,0.977,29.121-7.073,29.121-7.073s-2.024-57.285-13.576-64.953L244.477,281.16z"/>
		<path style="fill:#67D385;" d="M274.126,197.851c0,0,10.746,2.172,15.95,0.705c1.82-0.513,0.371,13.431,6.677,19.753
			c0,0-4.451,11.643-6.306,22.652c-1.855,11.008,6.93,38.429,8.545,54.56c0,0-18.931,6.115-36.365,6.115
			c-17.433,0-25.884-7.047-25.884-7.047s8.451-21.438,6.596-37.036c-1.855-15.598-4.08-39.708-2.225-48.981
			c1.855-9.273,14.466-10.72,14.466-10.72H274.126z"/>
		<path style="fill:#F0C1AE;" d="M284.141,155.849c0.53,3.638,2.967,13.033,3.709,21.935c0.742,8.902-5.193,17.875-15.579,11.534
			c-10.386-6.341,0-27.855,0-27.855L284.141,155.849z"/>
		<path style="fill:#67D385;" d="M284.512,199.455c0,0-4.803,3.162-4.442,9.556c0.362,6.394,2.958,11.183,11.86,10.458
			s26.335-13,35.979-21.514c9.644-8.514,19.288-40.785,19.288-40.785l-5.559-5.973c0,0-9.649,15.159-14.842,23.548
			c-5.193,8.39-5.564,10.666-15.95,16.39S284.512,199.455,284.512,199.455z"/>
		<path style="fill:#F0C1AE;" d="M286.375,167.265c0.453,2.585,3.2,6.637,2.948,8.182c-0.252,1.545-1.473,2.337-1.473,2.337h-2.958
			L286.375,167.265z"/>
		<path style="fill:#4E3D3D;" d="M277.835,144.772c0,0,6.677,2.967,7.047,18.175c0.371,15.208-10.47,9.527-12.24,15.579
			c-1.08,3.693,1.914,5.793,4.08,8.567c3.328,4.261,4.626,7.968,2.967,19.584c-1.758,12.313-2.828,25.262-2.828,25.262
			s-17.943,4.49-32.409,0.039c0,0-10.386-9.273-7.048-25.223c3.338-15.95,12.216-26.716,9.273-40.841
			C242.969,148.111,254.096,144.031,277.835,144.772z"/>
		<g>
			<path style="fill:#626BFF;" d="M254.923,443.887c0,0,2.292,9.203,3.155,10.928c0.863,1.725,0.863,3.163,0.863,3.163h12.772
				c0,0-4.741-9.203-7.75-11.216C260.954,444.75,254.923,443.887,254.923,443.887z"/>
			<path style="fill:#5CBD77;" d="M252.744,439.692c0,0-2.431,3.045-1.281,5.921s1.281,12.366,1.281,12.366h4.471
				c0,0,0.863-8.797,2.013-9.144c1.15-0.347,10.051,9.144,10.051,9.144h7.492c0,0-2.986-3.659-6.327-9.144
				c-4.118-6.76-6.915-9.143-6.915-9.143C258.941,439.692,252.744,439.692,252.744,439.692z"/>
			<path style="fill:#5CBD77;" d="M254.923,443.887l-2.179-4.195l-1.012-9.576c0,0,5.956,0.931,7.955,0.863
				c1.227-0.042,4.835,0,4.835,0s0.32,9.344,3.12,13.6L254.923,443.887z"/>
		</g>
		<g>
			<path style="fill:#626BFF;" d="M283.394,443.887c0,0,2.292,9.203,3.155,10.928c0.863,1.725,0.863,3.163,0.863,3.163h12.772
				c0,0-4.741-9.203-7.75-11.216C289.425,444.75,283.394,443.887,283.394,443.887z"/>
			<path style="fill:#5CBD77;" d="M281.215,439.692c0,0-2.431,3.045-1.281,5.921s1.281,12.366,1.281,12.366h4.471
				c0,0,0.863-8.797,2.013-9.144c1.15-0.347,10.051,9.144,10.051,9.144h7.492c0,0-2.986-3.659-6.327-9.144
				c-4.118-6.76-6.916-9.143-6.916-9.143C287.412,439.692,281.215,439.692,281.215,439.692z"/>
			<path style="fill:#5CBD77;" d="M283.394,443.887l-2.179-4.195l-1.012-9.576c0,0,5.956,0.931,7.956,0.863
				c1.227-0.042,4.835,0,4.835,0s0.319,9.344,3.12,13.6L283.394,443.887z"/>
		</g>
	</g>
	<g>
		<g>
			<g>
				<path style="fill:#A3F03B;" d="M153.144,113.422c-5.648-11.1,9.497-16.965,16.231-11.446c6.643,5.445,3.745,13.094-2.664,16.686
					c-3.13,1.754-6.705,3.002-8.466,6.39c-1.337,2.571-1.018,5.616-0.906,8.425c0.242,6.025-0.6,3.911,0.412,9.764
					c0.522,3.016,5.295,2.412,4.722-0.594c-1.039-5.45-0.413-4.042-0.727-9.724c-0.53-9.571,6.456-8.575,12.159-13.453
					c5.611-4.8,5.76-12.341,1.423-18.096c-10.447-13.862-35.995-1-25.884,13.46C150.353,116.133,153.883,114.874,153.144,113.422
					L153.144,113.422z"/>
			</g>
			<g>
				<path style="fill:#A3F03B;" d="M160.289,158.377c1.902-0.239,3.514-2.141,3.179-4.094c-0.336-1.959-2.055-3.436-4.094-3.179
					c-1.902,0.239-3.514,2.141-3.179,4.094C156.531,157.158,158.251,158.634,160.289,158.377L160.289,158.377z"/>
			</g>
		</g>
		<g>
			<path style="fill:none;stroke:#6178BA;stroke-miterlimit:10;" d="M150.63,112.165c-5.648-11.1,9.497-16.965,16.23-11.446
				c6.643,5.445,3.745,13.094-2.664,16.686c-3.13,1.754-6.705,3.002-8.466,6.39c-1.337,2.571-1.018,5.616-0.906,8.425
				c0.242,6.025-0.601,3.911,0.412,9.764c0.522,3.016,5.295,2.412,4.722-0.594c-1.039-5.45-0.413-4.043-0.727-9.724
				c-0.53-9.571,6.456-8.575,12.159-13.453c5.611-4.8,5.76-12.341,1.423-18.096c-10.447-13.862-35.995-1-25.883,13.46
				C147.839,114.876,151.369,113.617,150.63,112.165L150.63,112.165z"/>
		</g>
		<g>
			<path style="fill:none;stroke:#6178BA;stroke-miterlimit:10;" d="M157.775,157.12c1.902-0.239,3.514-2.141,3.179-4.094
				c-0.336-1.959-2.055-3.436-4.094-3.179c-1.902,0.239-3.514,2.141-3.179,4.094C154.017,155.9,155.737,157.377,157.775,157.12
				L157.775,157.12z"/>
		</g>
	</g>
	<g>
		<path style="fill:none;stroke:#A3F03B;stroke-miterlimit:10;" d="M185.756,137.012c1.83-1.875,4.695-2.341,7.305-2.101
			c2.609,0.24,5.133,1.073,7.735,1.381c8.348,0.987,17.253-3.406,24.951-0.027"/>
		<path style="fill:none;stroke:#A3F03B;stroke-miterlimit:10;" d="M184.943,126.601c3.144-3.035,8.661-9.383,11.45-6.018
			c0.774,0.934,0.319,2.445,1.391,3.015c1.072,0.57,2.341,0.582,3.555,0.582c4.944-0.003,9.883-0.005,14.826-0.008h5.54"/>
		<path style="fill:none;stroke:#A3F03B;stroke-miterlimit:10;" d="M193.931,110.35c2.404-0.2,4.807-0.401,7.211-0.601h26.609"/>
		<line style="fill:none;stroke:#A3F03B;stroke-miterlimit:10;" x1="189.725" y1="144" x2="221.595" y2="144"/>
	</g>
	<g>
		<path style="fill:#FF76FF;" d="M198.535,226.746c0.572,1.769,1.866,3.197,3.125,4.565c3.562,3.873,7.124,7.745,10.686,11.618
			c0.528,0.574,1.188,1.199,1.961,1.094c0.671-0.092,1.131-0.701,1.513-1.261c3.116-4.563,6.232-9.126,9.347-13.69
			c1.189-1.741,2.435-3.731,2.047-5.803c-0.269-1.438-1.283-2.606-2.258-3.697c-1.552-1.737-3.154-3.513-5.232-4.565
			C212.548,211.371,194.9,215.512,198.535,226.746z"/>
		<g>
			<path style="fill:none;stroke:#6178BA;stroke-miterlimit:10;" d="M202.937,213.602c-1.857,0.143-4.232,4.613-6.308,7.256
				c-2.076,2.642-2.466,3.775-2.271,4.53c0.195,0.755,7.367,7.172,10.576,10.758c3.209,3.586,4.907,5.473,5.662,5.851
				c0.755,0.378,8.493-9.867,11.325-13.144c2.831-3.277,4.065-5.542,4.065-5.542s-7.085-10.003-7.462-10.192
				C218.145,212.93,205.381,213.413,202.937,213.602z"/>
			<path style="fill:none;stroke:#6178BA;stroke-miterlimit:10;" d="M217.163,215.761c1.737,3.397,2.87,6.229,3.247,7.361
				c0.378,1.132-9.815,18.874-9.815,18.874"/>
			<path style="fill:none;stroke:#6178BA;stroke-miterlimit:10;" d="M203.046,215.761c-2.076,2.642-4.341,9.06-4.152,9.626
				c0.189,0.566,11.702,16.609,11.702,16.609"/>
			<path style="fill:none;stroke:#6178BA;stroke-miterlimit:10;" d="M210.149,215.761c0.447,0.755,0.12,7.361,0,9.626
				c-0.12,2.265,0.447,16.609,0.447,16.609"/>
			<path style="fill:none;stroke:#6178BA;stroke-miterlimit:10;" d="M195.873,224.444c1.132,0.378,14.275,0.944,14.275,0.944
				l13.794-2.454"/>
			<path style="fill:none;stroke:#6178BA;stroke-miterlimit:10;" d="M202.937,213.602c0,0-0.652,1.782,0.109,2.16s7.103,0,7.103,0
				h7.014l1.36-2.642"/>
			<g>
				<g>
					<path style="fill:#6178BA;" d="M224.678,216.62c1.094-1.148,2.423-1.98,3.719-2.874c0.598-0.412,0.009-1.399-0.568-0.971
						c-1.336,0.99-2.718,1.916-3.831,3.166C223.59,216.399,224.248,217.071,224.678,216.62L224.678,216.62z"/>
				</g>
			</g>
			<g>
				<g>
					<path style="fill:#6178BA;" d="M223.589,211.58c0.879-0.821,1.714-1.685,2.503-2.593c0.478-0.55-0.347-1.354-0.796-0.795
						c-0.755,0.939-1.556,1.836-2.404,2.692C222.445,211.335,223.126,212.011,223.589,211.58L223.589,211.58z"/>
				</g>
			</g>
			<g>
				<g>
					<path style="fill:#6178BA;" d="M215.935,210.459c0.186-1.194,0.4-2.383,0.623-3.571c0.168-0.893-1.219-1.258-1.356-0.374
						c-0.195,1.255-0.378,2.512-0.533,3.773C214.581,211.002,215.824,211.177,215.935,210.459L215.935,210.459z"/>
				</g>
			</g>
			<g>
				<g>
					<path style="fill:#6178BA;" d="M209.873,210.689c-0.18-0.963-0.379-1.919-0.687-2.85c-0.281-0.85-1.65-0.455-1.333,0.368
						c0.352,0.915,0.597,1.86,0.823,2.813C208.861,211.805,210.018,211.466,209.873,210.689L209.873,210.689z"/>
				</g>
			</g>
			<g>
				<g>
					<path style="fill:#6178BA;" d="M200.554,206.944c0.667,1.268,1.244,2.672,1.648,4.047c0.187,0.636,1.192,0.361,0.994-0.274
						c-0.449-1.446-1.087-2.93-1.813-4.258C201.087,205.915,200.267,206.398,200.554,206.944L200.554,206.944z"/>
				</g>
			</g>
			<g>
				<g>
					<path style="fill:#6178BA;" d="M195.094,210.841c1.271,0.801,2.199,1.965,3.279,2.987c0.438,0.415,1.09-0.234,0.663-0.663
						c-1.102-1.104-2.158-2.256-3.516-3.053C195.05,209.836,194.636,210.552,195.094,210.841L195.094,210.841z"/>
				</g>
			</g>
			<g>
				<g>
					<path style="fill:#6178BA;" d="M196.163,217.153c-1.545-1.133-3.351-1.692-5.043-2.545c-0.778-0.392-1.466,0.771-0.686,1.174
						c1.681,0.868,3.545,1.35,5.149,2.363C196.221,218.547,196.746,217.581,196.163,217.153L196.163,217.153z"/>
				</g>
			</g>
		</g>
	</g>
	<g>
		<g>
			<g>
				<path style="fill:#6178BA;" d="M241.802,130.727c10.84-10.015,25.998-17.925,41.034-17.707c0.95,0.014,0.951-1.465,0-1.477
					c-15.429-0.179-30.893,7.909-41.913,18.305C240.34,130.399,241.215,131.268,241.802,130.727L241.802,130.727z"/>
			</g>
		</g>
		<g>
			<g>
				<path style="fill:#6178BA;" d="M279.328,109.528c3.136,0.904,6.318,1.391,9.5,2.074c-0.067-0.512-0.134-1.025-0.201-1.537
					c-2.667,1.711-5.258,3.821-7.048,6.456c-0.605,0.89,0.838,2.032,1.509,1.165c1.905-2.462,4.218-4.287,6.558-6.3
					c0.592-0.51,0.076-1.395-0.595-1.436c-3.158-0.191-6.34-0.813-9.412-1.552C278.907,108.221,278.602,109.318,279.328,109.528
					L279.328,109.528z"/>
			</g>
		</g>
	</g>
	<path style="fill:#FFD300;" d="M358.096,172.652c-3.091,3.919-3.455,8.932-2.066,13.433c0.982,3.183,2.844,6.258,5.823,8.505
		c2.979,2.247,7.161,3.579,11.21,3.112c4.386-0.507,8.116-3.046,10.312-6.131c2.196-3.085,3.044-6.669,3.439-10.206
		c0.411-3.684,0.308-7.592-1.971-10.808C379.441,162.934,363.072,166.342,358.096,172.652z"/>
	<g>
		<path style="fill:none;stroke:#6178BA;stroke-miterlimit:10;" d="M375.781,202.947c3.285-6.271,8.891-12.105,9.551-19.448
			c0.585-6.507-4.303-11.798-10.241-13.648c-6.851-2.133-14.281,0.638-17.297,7.372c-0.067,0.151-0.132,0.302-0.194,0.455
			c-3.755,9.223,4.15,17.835,9.171,24.786"/>
		<path style="fill:none;stroke:#6178BA;stroke-miterlimit:10;" d="M375.588,205.544h-9.176c-0.897,0-1.625-0.728-1.625-1.625l0,0
			c0-0.897,0.728-1.625,1.625-1.625h9.176c0.897,0,1.625,0.728,1.625,1.625l0,0C377.213,204.816,376.485,205.544,375.588,205.544z"
			/>
		<path style="fill:none;stroke:#6178BA;stroke-miterlimit:10;" d="M375.588,208.919h-9.176c-0.897,0-1.625-0.728-1.625-1.625l0,0
			c0-0.897,0.728-1.625,1.625-1.625h9.176c0.897,0,1.625,0.728,1.625,1.625l0,0C377.213,208.191,376.485,208.919,375.588,208.919z"
			/>
		<path style="fill:none;stroke:#6178BA;stroke-miterlimit:10;" d="M375.588,212.294h-9.176c-0.897,0-1.625-0.728-1.625-1.625l0,0
			c0-0.897,0.728-1.625,1.625-1.625h9.176c0.897,0,1.625,0.728,1.625,1.625l0,0C377.213,211.566,376.485,212.294,375.588,212.294z"
			/>
		<g>
			<g>
				<path style="fill:#6178BA;" d="M369.615,176.296c-0.037,3.248-0.132,6.502-0.059,9.75c0.019,0.844,1.293,0.846,1.313,0
					c0.073-3.248-0.021-6.502-0.059-9.75C370.801,175.527,369.624,175.526,369.615,176.296L369.615,176.296z"/>
			</g>
		</g>
		<g>
			<g>
				<path style="fill:#6178BA;" d="M369.963,173.288c1.116,0,1.118-1.734,0-1.734C368.847,171.554,368.845,173.288,369.963,173.288
					L369.963,173.288z"/>
			</g>
		</g>
		<g>
			<g>
				<path style="fill:#6178BA;" d="M369.222,201.694c-1.975-4.09-1.993-9.49-4.944-13.091c-0.198-0.241-0.572,0.068-0.423,0.327
					c1.076,1.876,1.427,4.669,2.048,6.749c0.677,2.268,1.301,4.433,2.551,6.464C368.757,202.637,369.469,202.206,369.222,201.694
					L369.222,201.694z"/>
			</g>
		</g>
		<g>
			<g>
				<path style="fill:#6178BA;" d="M373.627,202.044c0.356-2.707,1.99-5.322,2.486-8.066c0.311-1.722-0.044-3.978,1.056-5.417
					c0.385-0.504-0.404-1.001-0.828-0.639c-1.509,1.288-1.343,3.472-1.598,5.268c-0.426,3.001-2.055,5.861-2.194,8.855
					C372.516,202.755,373.539,202.71,373.627,202.044L373.627,202.044z"/>
			</g>
		</g>
		<g>
			<g>
				<path style="fill:#6178BA;" d="M366.585,190.257c1.097,0.322,2.214,0.201,3.341,0.136c1.47-0.085,2.94,0.048,4.412-0.044
					c0.87-0.055,0.88-1.321,0-1.359c-1.258-0.055-2.583-0.081-3.836,0.05c-1.217,0.128-2.433,0.529-3.662,0.291
					C366.239,189.214,365.984,190.081,366.585,190.257L366.585,190.257z"/>
			</g>
		</g>
		<g>
			<g>
				<g>
					<path style="fill:#FFD300;" d="M381.714,200.203c0.471,0.94,1.013,1.836,1.626,2.69c0.396,0.552,1.319,0.002,0.911-0.532
						c-0.639-0.836-1.208-1.716-1.707-2.643C382.249,199.17,381.439,199.653,381.714,200.203L381.714,200.203z"/>
				</g>
			</g>
			<g>
				<g>
					<path style="fill:#FFD300;" d="M385.226,196.699c0.824,0.585,1.755,0.978,2.754,1.138c0.802,0.128,0.968-1.028,0.15-1.105
						c-0.876-0.082-1.684-0.382-2.43-0.842C385.177,195.567,384.742,196.355,385.226,196.699L385.226,196.699z"/>
				</g>
			</g>
			<g>
				<g>
					<path style="fill:#FFD300;" d="M388.129,191.394c0.667-0.004,1.333-0.008,2-0.012c0.543-0.003,0.544-0.841,0-0.844
						c-0.667-0.004-1.333-0.008-2-0.012C387.571,190.523,387.57,191.397,388.129,191.394L388.129,191.394z"/>
				</g>
			</g>
			<g>
				<g>
					<path style="fill:#FFD300;" d="M390.615,186.514c0.988-0.372,1.993-0.682,3.019-0.932c0.804-0.196,0.457-1.476-0.343-1.243
						c-1.065,0.31-2.099,0.689-3.118,1.126C389.581,185.718,390.006,186.744,390.615,186.514L390.615,186.514z"/>
				</g>
			</g>
			<g>
				<g>
					<path style="fill:#FFD300;" d="M389.271,179.537c1.062-0.591,2.158-1.104,3.294-1.537c0.518-0.197,0.218-0.937-0.298-0.707
						c-1.137,0.507-2.228,1.092-3.28,1.758C388.682,179.244,388.953,179.713,389.271,179.537L389.271,179.537z"/>
				</g>
			</g>
			<g>
				<g>
					<path style="fill:#FFD300;" d="M388.152,174.65c0.683-0.65,1.367-1.3,2.05-1.95c0.536-0.51-0.302-1.349-0.812-0.812
						c-0.65,0.683-1.3,1.367-1.95,2.05C386.992,174.408,387.682,175.098,388.152,174.65L388.152,174.65z"/>
				</g>
			</g>
			<g>
				<g>
					<path style="fill:#FFD300;" d="M383.822,169.914c0.51-0.825,1.124-1.553,1.845-2.202c0.571-0.514-0.288-1.379-0.845-0.845
						c-0.767,0.735-1.421,1.571-1.951,2.492C382.516,169.975,383.45,170.517,383.822,169.914L383.822,169.914z"/>
				</g>
			</g>
			<g>
				<g>
					<path style="fill:#FFD300;" d="M359.714,199.718c-0.499,0.927-1.068,1.807-1.707,2.643c-0.408,0.533,0.514,1.085,0.911,0.532
						c0.614-0.854,1.155-1.75,1.626-2.69C360.819,199.654,360.01,199.17,359.714,199.718L359.714,199.718z"/>
				</g>
			</g>
			<g>
				<g>
					<path style="fill:#FFD300;" d="M356.559,195.889c-0.746,0.46-1.554,0.76-2.43,0.842c-0.806,0.076-0.665,1.235,0.149,1.105
						c0.999-0.16,1.93-0.552,2.754-1.138C357.516,196.355,357.082,195.567,356.559,195.889L356.559,195.889z"/>
				</g>
			</g>
			<g>
				<g>
					<path style="fill:#FFD300;" d="M354.129,190.527c-0.667,0.004-1.333,0.008-2,0.012c-0.543,0.003-0.544,0.841,0,0.844
						c0.667,0.004,1.333,0.008,2,0.012C354.687,191.397,354.688,190.523,354.129,190.527L354.129,190.527z"/>
				</g>
			</g>
			<g>
				<g>
					<path style="fill:#FFD300;" d="M352.086,185.465c-1.019-0.436-2.054-0.816-3.118-1.126c-0.798-0.233-1.148,1.047-0.343,1.243
						c1.026,0.25,2.031,0.56,3.019,0.932C352.246,186.741,352.684,185.721,352.086,185.465L352.086,185.465z"/>
				</g>
			</g>
			<g>
				<g>
					<path style="fill:#FFD300;" d="M353.271,179.051c-1.052-0.665-2.144-1.25-3.28-1.758c-0.508-0.227-0.824,0.507-0.298,0.707
						c1.136,0.432,2.232,0.946,3.294,1.537C353.305,179.713,353.577,179.244,353.271,179.051L353.271,179.051z"/>
				</g>
			</g>
			<g>
				<g>
					<path style="fill:#FFD300;" d="M354.819,173.937c-0.65-0.683-1.3-1.366-1.95-2.05c-0.51-0.536-1.349,0.301-0.812,0.812
						c0.683,0.65,1.367,1.3,2.05,1.95C354.577,175.098,355.267,174.408,354.819,173.937L354.819,173.937z"/>
				</g>
			</g>
			<g>
				<g>
					<path style="fill:#FFD300;" d="M359.333,169.4c-0.488-0.946-1.108-1.806-1.841-2.577c-0.531-0.558-1.394,0.303-0.845,0.845
						c0.69,0.682,1.264,1.44,1.735,2.287C358.727,170.579,359.657,170.028,359.333,169.4L359.333,169.4z"/>
				</g>
			</g>
			<g>
				<g>
					<path style="fill:#FFD300;" d="M371.696,165.296c-0.36-0.594-0.445-1.182-0.578-1.849c-0.159-0.794-1.28-0.54-1.335,0.181
						c-0.063,0.814,0.325,1.676,0.78,2.331C371.038,166.643,372.14,166.029,371.696,165.296L371.696,165.296z"/>
				</g>
			</g>
			<g>
				<g>
					<path style="fill:#FFD300;" d="M377.822,167.101c0.193-0.428,0.406-0.846,0.611-1.268c0.466-0.956-0.983-1.58-1.349-0.569
						c-0.162,0.448-0.277,0.902-0.376,1.368C376.574,167.265,377.523,167.766,377.822,167.101L377.822,167.101z"/>
				</g>
			</g>
			<g>
				<g>
					<path style="fill:#FFD300;" d="M362.888,164.46c-0.035,1.107,0.224,2.159,0.674,3.164c0.339,0.759,1.526,0.098,1.133-0.662
						c-0.404-0.783-0.638-1.619-0.659-2.502C364.019,163.721,362.912,163.721,362.888,164.46L362.888,164.46z"/>
				</g>
			</g>
		</g>
		<g>
			<g>
				<path style="fill:#6178BA;" d="M368.126,212.747c-0.479,1.936,1.313,3.512,3.174,3.323c1.783-0.181,2.515-2.159,3.004-3.636
					c0.173-0.522-0.516-0.856-0.881-0.513c-0.758,0.711-0.756,2.049-1.622,2.644c-1.601,1.1-2.717-0.679-3.353-1.86
					C368.376,212.573,368.162,212.602,368.126,212.747L368.126,212.747z"/>
			</g>
		</g>
	</g>
	<g>
		<g>
			<g>
				<path style="fill:#30A8FF;" d="M385.145,117.607c14.116,8.601,10.007,26.807,5.098,39.684c-0.36,0.944,1.16,1.357,1.514,0.417
					c5.121-13.581,8.838-32.408-5.902-41.316C385.078,115.924,384.373,117.136,385.145,117.607L385.145,117.607z"/>
			</g>
		</g>
		<g>
			<g>
				<path style="fill:#30A8FF;" d="M384.913,153.843c1.311,2.548,2.114,5.228,3.148,7.894c0.183,0.471,0.512,0.733,1.016,0.774
					c3.426,0.276,6.426-1.189,9.461-2.589c1.088-0.502,0.316-2.36-0.822-1.949c-2.869,1.036-5.5,2.533-8.639,2.431
					c0.303,0.174,0.607,0.348,0.91,0.522c-1.077-2.426-1.883-6.143-4.007-7.905C385.395,152.533,384.546,153.13,384.913,153.843
					L384.913,153.843z"/>
			</g>
		</g>
	</g>
	<g>
		<g>
			<g>
				<path style="fill:#30A8FF;" d="M231.829,140.667c-0.048,11.949-9.23,19.769-19.447,24.181c-0.66,0.285-0.091,1.265,0.568,0.971
					c10.523-4.683,19.848-12.849,19.887-25.152C232.839,140.018,231.832,140.017,231.829,140.667L231.829,140.667z"/>
			</g>
		</g>
		<g>
			<g>
				<path style="fill:#30A8FF;" d="M210.548,161c0.249,2.497-0.053,4.629-1.294,6.837c-0.211,0.375-0.121,0.983,0.309,1.179
					c2.182,0.994,4.358,1.629,6.771,1.647c1.282,0.009,1.284-2.004,0-1.992c-2.125,0.019-4.115-0.533-6.107-1.229
					c0.172,0.422,0.343,0.844,0.515,1.265c1.162-2.596,1.701-4.848,1.377-7.707C212.006,160.011,210.447,159.989,210.548,161
					L210.548,161z"/>
			</g>
		</g>
	</g>
	<g>
		<g>
			<g>
				<path style="fill:#FF76FF;" d="M161.595,216.333c0.449,11.29,11.449,18.404,22.072,18.008c1.293-0.048,1.299-2.068,0-2.016
					c-9.611,0.388-19.949-5.65-20.595-15.992C163.013,215.392,161.557,215.378,161.595,216.333L161.595,216.333z"/>
			</g>
		</g>
		<g>
			<g>
				<path style="fill:#FF76FF;" d="M182.621,229.981c0.869,0.491,3.186,1.367,3.454,2.504c0.301,1.277-1.268,3.396-1.793,4.428
					c-0.486,0.955,0.968,1.799,1.437,0.84c0.753-1.54,2.363-3.833,1.883-5.671c-0.458-1.751-2.816-2.631-4.223-3.397
					C182.531,228.224,181.779,229.505,182.621,229.981L182.621,229.981z"/>
			</g>
		</g>
	</g>
	<g>
		<g>
			<g>
				<path style="fill:#FF76FF;" d="M160.838,255.288c9.16-1.471,18.448-1.617,27.666-2.551c4.59-0.465,9.179-0.942,13.77-1.399
					c1.968-0.196,3.936-0.396,5.904-0.601c1.312-0.139,2.624-0.278,3.937-0.415c1.35,0.227,2.411-0.201,3.185-1.283
					c-0.737,0.343-0.205,1.641,0.56,1.328c0.185-0.076,0.37-0.152,0.554-0.227c0.457-0.188,0.678-0.622,0.443-1.088
					c-0.053-0.104-0.105-0.208-0.158-0.312c-0.111-0.219-0.401-0.389-0.647-0.371c-9.863,0.704-19.682,1.873-29.515,2.886
					c-8.689,0.895-17.454,1.091-26.042,2.79C159.673,254.208,160.033,255.417,160.838,255.288L160.838,255.288z"/>
			</g>
		</g>
		<g>
			<g>
				<path style="fill:#FF76FF;" d="M173.333,259.053c10.831,0.581,21.5-2.389,32.333-2.456c0.772-0.005,0.767-1.164,0-1.195
					c-10.862-0.437-21.474,2.755-32.333,2.878C172.833,258.286,172.838,259.027,173.333,259.053L173.333,259.053z"/>
			</g>
		</g>
		<g>
			<g>
				<path style="fill:#FF76FF;" d="M177.333,267.417c16.203-0.122,32.121-3.846,48.333-3.777c1.252,0.005,1.254-1.947,0-1.945
					c-16.228,0.017-32.122,3.92-48.333,4.223C176.369,265.935,176.366,267.424,177.333,267.417L177.333,267.417z"/>
			</g>
		</g>
		<g>
			<g>
				<path style="fill:#FF76FF;" d="M194.333,274.773c5.304-0.588,10.614-1.096,15.872-2.028c0.979-0.173,0.564-1.664-0.411-1.492
					c-5.122,0.907-10.295,1.399-15.461,1.972C193.355,273.335,193.344,274.883,194.333,274.773L194.333,274.773z"/>
			</g>
		</g>
	</g>
	<g>
		<g>
			<path style="fill:#6178BA;" d="M204.069,193.688c7.035-3.49,14.46-1.596,21.931-1.692c1.286-0.016,1.278-1.937,0-1.992
				c-7.668-0.333-15.693-1.4-22.736,2.308C202.352,192.792,203.156,194.141,204.069,193.688L204.069,193.688z"/>
		</g>
	</g>
	<g>
		<g>
			<path style="fill:#FF9E00;" d="M167.037,172.293c-3.986,3.697-5.799,9.634-4.398,14.886c1.735,6.501,8.47,11.277,15.179,10.764
				c6.709-0.513,12.639-6.256,13.367-12.945C192.625,171.75,176.976,163.076,167.037,172.293z M176.167,195.109
				c-5.479-0.172-10.516-4.629-11.352-10.046c-0.837-5.417,2.621-11.187,7.792-13.003c4.178-1.468,9.115-0.367,12.367,2.64
				C193.083,182.195,187.018,195.45,176.167,195.109z"/>
			
				<rect x="161.825" y="192.192" transform="matrix(0.7071 0.7071 -0.7071 0.7071 186.2147 -58.4479)" style="fill:#FF9E00;" width="3.667" height="6.718"/>
			
				<rect x="151.948" y="193.764" transform="matrix(0.7071 0.7071 -0.7071 0.7071 189.6517 -50.1325)" style="fill:#FF9E00;" width="6.788" height="20.206"/>
		</g>
		<g>
			<path style="fill:none;stroke:#6178BA;stroke-miterlimit:10;" d="M166.037,171.293c-3.986,3.697-5.799,9.634-4.398,14.886
				c1.735,6.501,8.47,11.277,15.179,10.764c6.709-0.513,12.639-6.256,13.367-12.945C191.625,170.75,175.976,162.076,166.037,171.293
				z"/>
			<path style="fill:none;stroke:#6178BA;stroke-miterlimit:10;" d="M183.974,173.699c-3.252-3.006-8.188-4.107-12.367-2.64
				c-5.172,1.817-8.629,7.586-7.792,13.003c0.837,5.417,5.873,9.875,11.352,10.046C186.018,194.45,192.083,181.195,183.974,173.699z
				"/>
			
				<rect x="160.825" y="191.192" transform="matrix(0.7071 0.7071 -0.7071 0.7071 185.2147 -58.0336)" style="fill:none;stroke:#6178BA;stroke-miterlimit:10;" width="3.667" height="6.718"/>
			
				<rect x="150.948" y="192.764" transform="matrix(0.7071 0.7071 -0.7071 0.7071 188.6518 -49.7182)" style="fill:none;stroke:#6178BA;stroke-miterlimit:10;" width="6.788" height="20.206"/>
		</g>
		<g>
			<path style="fill:#30A8FF;" d="M183.26,175.229c-10.87,2.067-2.812,16.482,4.117,11.317c3.754-2.798,2.122-12.948-4.117-10.919"
				/>
		</g>
		<g>
			<g>
				<path style="fill:#6178BA;" d="M183.352,176.26c-2.294,0.487-3.686,2.267-3.31,4.637c0.309,1.945,1.828,4.149,3.992,4.165
					c5.327,0.038,4.462-10.514-0.769-8.865c-0.774,0.244-0.443,1.466,0.336,1.22c3.309-1.043,3.667,6.937,0.021,6.377
					c-1.4-0.215-2.366-1.763-2.652-3.035c-0.442-1.963,0.667-3.4,2.544-3.911C183.895,176.745,183.734,176.179,183.352,176.26
					L183.352,176.26z"/>
			</g>
		</g>
		<g>
			<g>
				<path style="fill:#6178BA;" d="M171.311,182.634c3.724-2.478,7.438-5.759,12.079-6.063c5.341-0.35,10.012,2.193,14.865,3.966
					c-0.049-0.373-0.098-0.745-0.146-1.118c-3.077,1.879-6.276,4.064-9.537,5.614c-5.543,2.634-11.529,0.772-15.985-3.056
					c-0.864-0.742-2.046,0.409-1.26,1.26c3.272,3.538,8.477,5.029,13.234,4.555c5.098-0.507,10.011-4.613,14.165-7.317
					c0.417-0.272,0.393-0.995-0.146-1.118c-5.249-1.195-9.7-4.752-15.402-4.225c-4.86,0.449-8.643,3.854-12.341,6.692
					C170.374,182.18,170.796,182.977,171.311,182.634L171.311,182.634z"/>
			</g>
		</g>
		<g>
			<g>
				<path style="fill:#6178BA;" d="M197.056,174.723c1.019-0.981,2.039-1.961,3.058-2.942c0.588-0.566-0.329-1.483-0.895-0.895
					c-0.981,1.019-1.961,2.039-2.942,3.058C195.785,174.455,196.544,175.215,197.056,174.723L197.056,174.723z"/>
			</g>
		</g>
		<g>
			<g>
				<path style="fill:#6178BA;" d="M192.859,173.641c0.795-1.555,1.463-3.177,2.095-4.803c0.262-0.675-0.877-1.162-1.178-0.497
					c-0.699,1.545-1.239,3.153-1.97,4.684C191.473,173.726,192.5,174.345,192.859,173.641L192.859,173.641z"/>
			</g>
		</g>
		<g>
			<g>
				<path style="fill:#6178BA;" d="M188.908,171c0.16-1.556,0.423-3.098,0.392-4.667c-0.016-0.815-1.302-0.813-1.266,0
					c0.07,1.565-0.153,3.11-0.275,4.667C187.701,171.742,188.833,171.725,188.908,171L188.908,171z"/>
			</g>
		</g>
	</g>
	<g>
		<g>
			<g>
				<path style="fill:#30A8FF;" d="M392.333,206.978c8.441-0.941,17.326-0.18,25.799-0.104c8.623,0.077,17.245,0.221,25.868,0.303
					c1.086,0.01,1.087-1.685,0-1.688c-8.623-0.023-17.245-0.11-25.868-0.129c-8.471-0.019-17.369-0.687-25.799,0.328
					C391.522,205.786,391.506,207.07,392.333,206.978L392.333,206.978z"/>
			</g>
		</g>
		<g>
			<g>
				<path style="fill:#30A8FF;" d="M396.25,199.684c4.868,0.669,9.655,0.099,14.535-0.19c5.222-0.31,10.437-0.059,15.659-0.469
					c0.994-0.078,0.813-1.549-0.184-1.358c-5.087,0.972-10.333,0.435-15.475,0.797c-4.852,0.342-9.567,0.795-14.438,0.506
					C395.944,198.946,395.841,199.628,396.25,199.684L396.25,199.684z"/>
			</g>
		</g>
		<g>
			<g>
				<path style="fill:#30A8FF;" d="M399.471,195.751c6.753-1.134,14.052-1.016,20.885-0.824c5.827,0.163,11.593,1.268,17.356-0.08
					c1.098-0.257,0.631-1.986-0.467-1.695c-6.475,1.713-13.331,0.143-19.928,0.37c-6.034,0.208-12.13,0.253-18.076,1.392
					C398.689,195.021,398.928,195.843,399.471,195.751L399.471,195.751z"/>
			</g>
		</g>
		<g>
			<g>
				<path style="fill:#30A8FF;" d="M400.359,191.586c12.326-0.774,24.76-2.091,37.12-1.479c0.991,0.049,1-1.55,0-1.547
					c-12.421,0.038-24.737,0.985-37.12,1.854C399.612,190.467,399.604,191.633,400.359,191.586L400.359,191.586z"/>
			</g>
		</g>
		<g>
			<g>
				<path style="fill:#30A8FF;" d="M406.88,183.135c6.019,0.008,12.039,0.016,18.058,0.023c0.633,0.001,0.635-0.985,0-0.984
					c-6.019,0.008-12.039,0.016-18.058,0.023C406.277,182.199,406.276,183.135,406.88,183.135L406.88,183.135z"/>
			</g>
		</g>
	</g>
	<g>
		<g>
			<g>
				<path style="fill:#FF9E00;" d="M421.408,128.062c-11.429-1.986-18.829,11.174-13.395,20.866
					c3.052,5.444,9.353,6.872,15.046,5.124c3.485-1.07,7.238-3.154,9.195-6.335c2.516-4.09,0.763-8.266-1-12.255
					c-0.552-1.249-2.405-0.169-1.842,1.076c2.386,5.277,2.671,10.199-2.831,13.505c-2.693,1.618-6.061,2.865-9.247,2.645
					c-4.49-0.309-7.806-3.561-8.863-7.813c-2.122-8.54,3.718-17.185,12.862-16.262C421.646,128.646,421.72,128.116,421.408,128.062
					L421.408,128.062z"/>
			</g>
		</g>
		<g>
			<g>
				<path style="fill:#6178BA;" d="M424.242,126.752c-3.208,4.438-5.822,9.22-8.054,14.214c-0.308,0.689,0.321,1.37,1.028,1.028
					c4.84-2.338,8.994-5.818,13.808-8.202c0.575-0.285,0.544-1.031,0.187-1.453c-2.328-2.758-5.012-6.313-8.982-4.42
					c-0.912,0.435-0.257,1.813,0.668,1.585c3.245-0.799,5.036,2.087,7.005,4.144c0.062-0.484,0.125-0.969,0.187-1.453
					c-4.773,2.471-8.864,6.027-13.633,8.503c0.368,0.283,0.736,0.566,1.104,0.849c2.064-4.998,4.506-9.808,7.531-14.296
					C425.45,126.717,424.607,126.246,424.242,126.752L424.242,126.752z"/>
			</g>
		</g>
		<g>
			<g>
				<path style="fill:#6178BA;" d="M419.667,146.065c6.922,0.171,13.769-1.151,20.667-1.029c0.985,0.018,0.861-1.536-0.187-1.381
					c-6.714,0.995-13.691,1.669-20.48,1.613C419.153,145.264,419.154,146.053,419.667,146.065L419.667,146.065z"/>
			</g>
		</g>
		<g>
			<g>
				<path style="fill:#6178BA;" d="M419,148.609c8.334,0.026,16.667,0.082,25-0.012c0.769-0.009,0.77-1.187,0-1.195
					c-8.333-0.094-16.666-0.038-25-0.012C418.216,147.393,418.214,148.607,419,148.609L419,148.609z"/>
			</g>
		</g>
	</g>
	<g>
		<g>
			<g>
				<path style="fill:#FFD300;" d="M341.211,203.878c-9.032,9.157-28.793,24.011-20.354,38.929c0.594,1.05,2.234,0.096,1.619-0.946
					c-8.148-13.801,11.268-28.437,19.646-37.071C342.7,204.193,341.795,203.286,341.211,203.878L341.211,203.878z"/>
			</g>
		</g>
		<g>
			<g>
				<path style="fill:#FFD300;" d="M314.333,243.645c2.384,0.078,6.283,1.157,8.568,0.032c2.262-1.114,3.642-4.904,4.938-6.852
					c0.693-1.041-1.013-2.045-1.68-0.982c-0.904,1.441-1.773,2.903-2.596,4.392c-0.371,0.671-0.729,1.722-1.43,2.129
					c-0.676,0.393-1.671,0.219-2.414,0.187c-1.797-0.078-3.588-0.175-5.387-0.196C313.502,242.346,313.505,243.617,314.333,243.645
					L314.333,243.645z"/>
			</g>
		</g>
	</g>
	<g>
		<rect x="338.592" y="234.762" style="fill:none;stroke:#6178BA;stroke-miterlimit:10;" width="29.648" height="42.331"/>
		<rect x="376.926" y="234.762" style="fill:none;stroke:#6178BA;stroke-miterlimit:10;" width="29.648" height="42.331"/>
		<rect x="415.259" y="234.762" style="fill:none;stroke:#6178BA;stroke-miterlimit:10;" width="29.648" height="42.331"/>
		
			<ellipse transform="matrix(0.1598 -0.9872 0.9872 0.1598 51.9643 554.5665)" style="fill:#FFD300;" cx="351.759" cy="246.757" rx="7.833" ry="7.833"/>
		<circle style="fill:#FFD300;" cx="396.346" cy="256.818" r="7.833"/>
		<polygon style="fill:#67D385;" points="363.112,264.726 353.926,248.616 344.74,264.726 		"/>
		<rect x="385.379" y="243.303" style="fill:#67D385;" width="8.084" height="27.03"/>
		<path style="fill:#FFD300;" d="M437.02,242.509c3.589,3.589,3.589,9.406,0,12.995c-3.588,3.589-9.406,3.589-12.995,0
			c-3.589-3.588-3.589-9.406,0-12.995C427.613,238.921,433.431,238.921,437.02,242.509z"/>
		<circle style="fill:#67D385;" cx="430.522" cy="262.806" r="9.189"/>
	</g>
	<g>
		<g>
			<g>
				<path style="fill:#FF9E00;" d="M394.814,100.481c2.842-2.577,4.839,0.085,7.322,0.777c2.236,0.623,4.889,0.692,7.181,0.786
					c5.677,0.233,11.365-0.251,17.016-0.744c0.807-0.07,0.81-1.342,0-1.266c-7.258,0.688-15.141,1.642-22.364,0.21
					c-4.457-0.883-6.192-3.993-10.117-0.725C393.186,100.074,394.161,101.073,394.814,100.481L394.814,100.481z"/>
			</g>
		</g>
		<g>
			<g>
				<path style="fill:#FF9E00;" d="M395.333,105.802c6.861-0.162,13.621,0.712,20.461,1.018c2.012,0.09,9.063-1.136,10.408,0.311
					c0.575,0.619,1.52-0.322,0.928-0.928c-1.679-1.719-6.684-0.535-8.829-0.515c-7.673,0.074-15.278-1.093-22.969-0.823
					C394.732,104.886,394.728,105.816,395.333,105.802L395.333,105.802z"/>
			</g>
		</g>
		<g>
			<g>
				<path style="fill:#FF9E00;" d="M396,110.872c6.667,0.047,13.333,0.094,20,0.141c0.875,0.006,0.876-1.366,0-1.359
					c-6.667,0.047-13.333,0.094-20,0.141C395.306,109.799,395.305,110.868,396,110.872L396,110.872z"/>
			</g>
		</g>
		<g>
			<g>
				<path style="fill:#FF9E00;" d="M397.667,118.99c10.412,0.067,20.931,0.572,31.333,0.105c0.98-0.044,0.981-1.479,0-1.523
					c-10.402-0.467-20.921,0.039-31.333,0.105C396.822,117.683,396.821,118.984,397.667,118.99L397.667,118.99z"/>
			</g>
		</g>
		<g>
			<g>
				<path style="fill:#6178BA;" d="M397,93.234c5.33,0.254,10.666,0.357,16,0.504c0.95,0.026,0.952-1.503,0-1.477
					c-5.334,0.146-10.67,0.25-16,0.504C396.699,92.78,396.698,93.22,397,93.234L397,93.234z"/>
			</g>
		</g>
	</g>
	<line style="fill:none;stroke:#EBF1FA;stroke-width:2;stroke-miterlimit:10;" x1="27" y1="457.979" x2="468" y2="457.979"/>
	<g>
		<g>
			<g>
				<path style="fill:#00AB84;" d="M78.802,366.084c11.334,4.401,19.719-16.463,19.719-16.463
					c-3.061,6.007-11.006,3.923-11.006,3.923s7.219-0.732,10.852-13.022c3.634-12.29-2.142-18.85-2.142-18.85
					c-1.319,4.22-7.799,7.772-7.799,7.772s6.947-11.652,2.428-17.799c-4.52-6.147-22.368-16.104-22.368-16.104
					s-11.795,13.78-14.601,19.24c-2.805,5.46,5.119,14.316,5.119,14.316s-6.588-2.952-8.457-6.072c0,0-4.245,4.611-1.821,14.077
					c2.425,9.465,8.199,12.01,8.199,12.01s-7.943-0.584-9.715-5.453c0,0,0.894,17.171,13.101,18.266c0,0-7.194,1.653-10.544-2.277
					c0,0,6.146,13.943,16.646,14.511c8.884,5.109,23.235-8.869,23.235-8.869C84.493,368.174,78.802,366.084,78.802,366.084z"/>
				<path style="fill:none;stroke:#04787F;stroke-width:1.5;stroke-miterlimit:10;" d="M73.148,314.172
					c0.441,9.054,0.335,17.774-0.341,26.316c-1.442,18.235-13.682,51.19-7.861,71.561"/>
			</g>
			<g>
				<path style="fill:#14D78F;" d="M47.244,381.302c-6.555,6.563-18.835-5.416-18.835-5.416c3.987,3.249,8.89-0.652,8.89-0.652
					s-5.264,1.713-11.587-5.746c-6.323-7.459-4.312-13.817-4.312-13.817c2.221,2.539,7.838,3.022,7.838,3.022
					s-8.439-5.993-7.178-11.676c1.261-5.683,10.651-18.132,10.651-18.132s12.479,5.984,16.119,8.931
					c3.64,2.946,0.837,11.569,0.837,11.569s3.689-4.091,4.032-6.844c0,0,4.384,1.911,5.608,9.264
					c1.224,7.354-2.023,10.909-2.023,10.909s5.364-2.854,5.101-6.799c0,0,4.666,12.261-3.517,16.786c0,0,5.531-1.063,6.658-4.838
					c0,0,0.006,11.626-7.148,15.257c-4.627,6.303-18.951,0.968-18.951,0.968C43.916,384.515,47.244,381.302,47.244,381.302z"/>
				<path style="fill:none;stroke:#04787F;stroke-width:1.5;stroke-miterlimit:10;" d="M36.861,345.418
					c-0.14,11.788,8.295,25.472,13.365,32.515c6.817,9.47,23.188,20.653,20.174,37.902"/>
			</g>
			<path style="fill:#14BB8F;" d="M71.067,388.683c0,0-9.282-6.197-9.282-15.222c0-9.024,3.909-15.735,3.909-15.735
				s0.44,7.63,3.909,7.764c0,0-4.063-5.341,0-11.812c4.063-6.471,15.945-9.077,15.945-9.077s-4.753,4.685-3.565,7.953
				c0,0,2.376-8.247,9.803-8.876c7.426-0.63,17.823-1.026,17.823-1.026s0,12.582-3.862,16.737c-3.862,4.155-7.426,6.1-7.426,6.1
				s6.238-0.559,8.614-3.034c0,0-5.05,14.343-17.526,12.674c0,0,6.238,2.845,10.1,1.571
				C99.51,376.701,94.757,390.776,71.067,388.683z"/>
			<path style="fill:none;stroke:#04787F;stroke-width:1.5;stroke-miterlimit:10;" d="M70.399,415.835
				c0,0-8.614-33.193,22.873-61.28"/>
		</g>
		<rect x="47.211" y="392.994" style="fill:#D2E0EC;" width="38.486" height="64.985"/>
	</g>
	<g>
		<rect x="30.714" y="79.702" style="fill:#FFFFFF;" width="63.931" height="106.258"/>
		<rect x="49.23" y="73.059" style="fill:none;stroke:#FFFFFF;stroke-miterlimit:10;" width="50.992" height="103.396"/>
		<rect x="43.915" y="76.159" style="fill:#30A8FF;" width="30.811" height="9.301"/>
		<g>
			<line style="fill:none;stroke:#30A8FF;stroke-miterlimit:10;" x1="47.901" y1="100.518" x2="78.461" y2="100.518"/>
			<line style="fill:none;stroke:#30A8FF;stroke-miterlimit:10;" x1="47.458" y1="108.047" x2="78.907" y2="108.047"/>
			<line style="fill:none;stroke:#30A8FF;stroke-miterlimit:10;" x1="48.344" y1="116.905" x2="76.72" y2="116.905"/>
			<line style="fill:none;stroke:#30A8FF;stroke-miterlimit:10;" x1="45.687" y1="123.991" x2="79.358" y2="123.991"/>
			<line style="fill:none;stroke:#30A8FF;stroke-miterlimit:10;" x1="48.787" y1="134.177" x2="86.118" y2="134.177"/>
			<line style="fill:none;stroke:#30A8FF;stroke-miterlimit:10;" x1="51.001" y1="142.592" x2="80.705" y2="142.592"/>
			<line style="fill:none;stroke:#30A8FF;stroke-miterlimit:10;" x1="56.759" y1="150.564" x2="79.351" y2="150.564"/>
			<line style="fill:none;stroke:#30A8FF;stroke-miterlimit:10;" x1="54.544" y1="159.422" x2="78.018" y2="159.422"/>
		</g>
	</g>
	<g>
		<g>
			<rect x="41.393" y="205.219" style="fill:none;stroke:#FFFFFF;stroke-miterlimit:10;" width="59.204" height="62.714"/>
			<rect x="34.549" y="207.617" style="fill:#FFFFFF;" width="59.204" height="62.714"/>
			<rect x="46.774" y="204.336" style="fill:#67D385;" width="28.532" height="8.613"/>
		</g>
		
			<text transform="matrix(1 0 0 1 46.7746 244.4756)" style="fill:none;stroke:#FF9E00;stroke-miterlimit:10; font-family:'SofiaPro-Bold'; font-size:31.372px;">25</text>
		<text transform="matrix(1 0 0 1 48.6711 260.5064)" style="fill:#30A8FF; font-family:'SofiaPro-Bold'; font-size:18.9823px;">Feb</text>
	</g>
</g>
<g id="DESIGNED_BY_FREEPIK">
	<g>
		<g>
			<path style="fill:#132539;" d="M175.869,475.58c-0.14-0.17-0.34-0.25-0.61-0.25c-0.27,0-0.47,0.09-0.62,0.27
				c-0.14,0.19-0.21,0.46-0.21,0.82v2.6c-0.33-0.359-0.67-0.63-1.02-0.81c-0.35-0.17-0.77-0.26-1.28-0.26
				c-0.87,0-1.58,0.31-2.12,0.92c-0.53,0.62-0.8,1.47-0.8,2.57c0,0.52,0.07,1,0.2,1.449c0.14,0.45,0.33,0.841,0.6,1.17
				c0.26,0.33,0.57,0.58,0.93,0.761c0.35,0.18,0.74,0.27,1.16,0.27c0.32,0,0.62-0.05,0.88-0.14c0.27-0.08,0.52-0.21,0.75-0.38
				c0.23-0.17,0.46-0.391,0.7-0.66v0.17c0,0.32,0.08,0.57,0.23,0.75c0.16,0.17,0.36,0.26,0.6,0.26c0.24,0,0.44-0.09,0.6-0.25
				c0.15-0.17,0.23-0.42,0.23-0.76v-7.75C176.089,476,176.019,475.75,175.869,475.58z M174.099,482.75
				c-0.15,0.33-0.35,0.58-0.61,0.74c-0.25,0.16-0.54,0.24-0.84,0.24c-0.31,0-0.59-0.091-0.85-0.261c-0.26-0.17-0.46-0.42-0.61-0.75
				c-0.14-0.34-0.22-0.739-0.22-1.22c0-0.45,0.07-0.85,0.21-1.19c0.14-0.34,0.34-0.6,0.59-0.779c0.25-0.181,0.54-0.28,0.86-0.28
				c0.31,0,0.6,0.09,0.86,0.27c0.26,0.181,0.46,0.44,0.61,0.771c0.16,0.34,0.23,0.74,0.23,1.21
				C174.329,482,174.259,482.41,174.099,482.75z"/>
			<path style="fill:#132539;" d="M182.919,482.67c-0.17,0-0.3,0.04-0.39,0.12c-0.22,0.2-0.4,0.37-0.53,0.49
				c-0.14,0.12-0.29,0.229-0.45,0.34c-0.17,0.1-0.33,0.18-0.51,0.23c-0.17,0.051-0.36,0.07-0.57,0.07c-0.32,0-0.6-0.08-0.86-0.229
				c-0.26-0.15-0.47-0.381-0.63-0.69c-0.16-0.3-0.24-0.66-0.24-1.05h3.44c0.46,0,0.81-0.07,1.07-0.2c0.25-0.13,0.38-0.42,0.38-0.86
				c0-0.479-0.13-0.939-0.37-1.399c-0.24-0.46-0.61-0.84-1.11-1.13c-0.49-0.29-1.08-0.431-1.76-0.431c-0.53,0-1.01,0.08-1.44,0.25
				c-0.44,0.17-0.8,0.42-1.1,0.73c-0.29,0.32-0.52,0.7-0.67,1.149c-0.16,0.44-0.24,0.921-0.24,1.44c0,1.1,0.32,1.98,0.94,2.62
				c0.63,0.64,1.51,0.97,2.64,0.97c0.49,0,0.93-0.07,1.31-0.2c0.38-0.13,0.69-0.29,0.94-0.479c0.25-0.2,0.44-0.4,0.57-0.61
				c0.12-0.22,0.18-0.399,0.18-0.56c0-0.181-0.05-0.32-0.16-0.42C183.239,482.72,183.099,482.67,182.919,482.67z M179.249,479.6
				c0.28-0.3,0.64-0.449,1.08-0.449c0.46,0,0.83,0.149,1.11,0.449c0.28,0.301,0.44,0.75,0.49,1.351h-3.19
				C178.799,480.36,178.969,479.91,179.249,479.6z"/>
			<path style="fill:#132539;" d="M189.919,481.93c-0.18-0.25-0.44-0.47-0.79-0.649c-0.34-0.19-0.79-0.351-1.33-0.48
				c-0.46-0.109-0.82-0.21-1.08-0.28c-0.27-0.079-0.47-0.18-0.63-0.3c-0.15-0.109-0.23-0.27-0.23-0.45c0-0.199,0.1-0.369,0.31-0.51
				c0.22-0.13,0.48-0.2,0.8-0.2c0.31,0,0.55,0.051,0.73,0.16c0.18,0.101,0.34,0.24,0.47,0.41c0.16,0.2,0.31,0.36,0.43,0.46
				c0.13,0.101,0.28,0.16,0.46,0.16c0.25,0,0.45-0.07,0.58-0.2c0.14-0.13,0.2-0.29,0.2-0.49c0-0.19-0.06-0.38-0.19-0.569
				c-0.12-0.19-0.31-0.37-0.55-0.53c-0.24-0.16-0.54-0.28-0.91-0.38c-0.36-0.09-0.77-0.14-1.22-0.14c-0.58,0-1.08,0.09-1.49,0.279
				c-0.41,0.19-0.72,0.44-0.93,0.75c-0.21,0.311-0.31,0.65-0.31,1c0,0.391,0.11,0.73,0.34,1c0.23,0.271,0.53,0.49,0.91,0.65
				c0.38,0.16,0.87,0.32,1.48,0.47c0.53,0.13,0.92,0.271,1.15,0.41c0.24,0.14,0.35,0.37,0.35,0.67c0,0.21-0.11,0.38-0.33,0.54
				c-0.23,0.16-0.52,0.24-0.87,0.24c-0.43,0-0.78-0.08-1.03-0.23c-0.25-0.16-0.46-0.39-0.65-0.71c-0.08-0.16-0.18-0.29-0.28-0.38
				c-0.1-0.09-0.24-0.13-0.42-0.13c-0.21,0-0.39,0.07-0.52,0.2c-0.14,0.14-0.21,0.31-0.21,0.5c0,0.29,0.11,0.58,0.32,0.87
				c0.22,0.29,0.55,0.529,1,0.729c0.45,0.19,0.99,0.29,1.62,0.29c0.66,0,1.22-0.09,1.68-0.27c0.47-0.181,0.82-0.44,1.05-0.79
				c0.24-0.34,0.35-0.761,0.35-1.24C190.179,482.47,190.099,482.18,189.919,481.93z"/>
			<path style="fill:#132539;" d="M192.599,478.21c-0.17-0.18-0.38-0.27-0.64-0.27c-0.26,0-0.47,0.09-0.63,0.27
				c-0.16,0.17-0.24,0.43-0.24,0.78v5.029c0,0.341,0.08,0.601,0.24,0.79c0.16,0.181,0.37,0.28,0.63,0.28c0.26,0,0.47-0.09,0.64-0.27
				c0.17-0.181,0.25-0.45,0.25-0.801v-5.079C192.849,478.63,192.769,478.38,192.599,478.21z M192.579,475.62
				c-0.17-0.14-0.37-0.22-0.6-0.22c-0.24,0-0.44,0.08-0.62,0.25c-0.18,0.159-0.27,0.359-0.27,0.609c0,0.28,0.09,0.49,0.26,0.641
				c0.18,0.149,0.39,0.22,0.63,0.22c0.24,0,0.44-0.07,0.61-0.22c0.17-0.16,0.26-0.37,0.26-0.641
				C192.849,475.98,192.759,475.77,192.579,475.62z"/>
			<path style="fill:#132539;" d="M200.379,478.27c-0.11-0.22-0.34-0.329-0.68-0.329c-0.23,0-0.43,0.09-0.58,0.25
				c-0.15,0.17-0.22,0.409-0.22,0.71v0.239c-0.31-0.409-0.65-0.71-1.02-0.899c-0.36-0.19-0.79-0.29-1.29-0.29
				c-0.42,0-0.8,0.08-1.15,0.229c-0.35,0.141-0.65,0.36-0.92,0.66c-0.26,0.29-0.47,0.65-0.61,1.07c-0.15,0.43-0.22,0.899-0.22,1.43
				c0,0.71,0.12,1.33,0.36,1.87c0.23,0.54,0.57,0.96,1.01,1.26c0.44,0.311,0.95,0.46,1.54,0.46c0.49,0,0.91-0.1,1.27-0.3
				c0.35-0.2,0.66-0.49,0.93-0.86c-0.01,0.57-0.02,0.99-0.04,1.25c-0.01,0.261-0.07,0.5-0.17,0.73c-0.1,0.23-0.28,0.4-0.53,0.53
				c-0.25,0.13-0.6,0.189-1.06,0.189c-0.22,0-0.42-0.02-0.59-0.06c-0.17-0.04-0.32-0.101-0.44-0.19c-0.12-0.08-0.24-0.18-0.34-0.3
				c-0.1-0.12-0.2-0.24-0.29-0.35c-0.19-0.23-0.42-0.34-0.68-0.34c-0.2,0-0.38,0.069-0.52,0.199c-0.15,0.141-0.22,0.311-0.22,0.53
				c0,0.28,0.13,0.55,0.38,0.82c0.26,0.27,0.63,0.489,1.1,0.66c0.48,0.17,1.02,0.25,1.63,0.25c0.66,0,1.21-0.06,1.65-0.2
				c0.45-0.13,0.81-0.33,1.08-0.61c0.28-0.27,0.48-0.62,0.6-1.04c0.12-0.42,0.19-0.92,0.19-1.51v-5.1
				C200.549,478.81,200.489,478.49,200.379,478.27z M198.589,482.68c-0.16,0.311-0.37,0.551-0.63,0.7
				c-0.26,0.16-0.54,0.24-0.83,0.24c-0.49,0-0.9-0.18-1.21-0.55c-0.31-0.36-0.46-0.9-0.46-1.61c0-0.71,0.15-1.25,0.45-1.63
				c0.3-0.38,0.7-0.58,1.21-0.58c0.51,0,0.93,0.2,1.24,0.6c0.32,0.4,0.48,0.96,0.48,1.681
				C198.839,481.98,198.749,482.36,198.589,482.68z"/>
			<path style="fill:#132539;" d="M207.899,479.79c-0.03-0.24-0.11-0.48-0.22-0.69c-0.18-0.369-0.45-0.649-0.82-0.859
				c-0.36-0.2-0.78-0.3-1.24-0.3c-0.48,0-0.9,0.1-1.27,0.29c-0.1,0.05-0.19,0.109-0.29,0.18c-0.25,0.18-0.49,0.42-0.72,0.72v-0.22
				c0-0.21-0.04-0.391-0.11-0.53c-0.08-0.149-0.18-0.26-0.3-0.33c-0.13-0.069-0.27-0.109-0.42-0.109c-0.25,0-0.45,0.079-0.6,0.25
				c-0.15,0.159-0.22,0.409-0.22,0.75v5.079c0,0.341,0.08,0.601,0.25,0.79c0.16,0.181,0.37,0.28,0.62,0.28
				c0.26,0,0.48-0.09,0.64-0.27c0.17-0.181,0.25-0.45,0.25-0.801v-2.199c0-0.721,0.04-1.21,0.13-1.471
				c0.12-0.33,0.31-0.58,0.56-0.77c0.26-0.191,0.55-0.28,0.86-0.28c0.48,0,0.8,0.15,0.96,0.46c0.16,0.311,0.24,0.75,0.24,1.33v2.93
				c0,0.341,0.09,0.601,0.25,0.79c0.16,0.181,0.37,0.28,0.64,0.28c0.25,0,0.46-0.09,0.62-0.27c0.17-0.181,0.25-0.45,0.25-0.801
				v-3.27C207.959,480.36,207.939,480.04,207.899,479.79z"/>
			<path style="fill:#132539;" d="M214.769,482.67c-0.17,0-0.29,0.04-0.38,0.12c-0.22,0.2-0.4,0.37-0.54,0.49
				c-0.14,0.12-0.29,0.229-0.45,0.34c-0.16,0.1-0.33,0.18-0.5,0.23c-0.17,0.051-0.35,0.07-0.55,0.07h-0.01c-0.01,0-0.01,0-0.02,0
				c-0.31,0-0.6-0.08-0.86-0.229c-0.26-0.15-0.47-0.381-0.62-0.69c-0.03-0.06-0.06-0.11-0.08-0.17v-0.01
				c-0.11-0.261-0.16-0.561-0.17-0.87h3.44c0.46,0,0.82-0.07,1.07-0.2s0.38-0.42,0.38-0.86c0-0.479-0.12-0.939-0.37-1.399
				c-0.24-0.46-0.61-0.84-1.1-1.13c-0.49-0.29-1.08-0.431-1.77-0.431c-0.53,0-1.01,0.08-1.44,0.25c-0.43,0.17-0.8,0.42-1.09,0.73
				c-0.3,0.32-0.53,0.7-0.68,1.149c-0.15,0.44-0.23,0.921-0.23,1.44c0,1.1,0.31,1.98,0.94,2.62c0.62,0.64,1.5,0.97,2.63,0.97
				c0.49,0,0.93-0.07,1.31-0.2c0.01,0,0.03-0.01,0.04-0.01c0.36-0.13,0.66-0.29,0.91-0.47c0.25-0.2,0.43-0.4,0.56-0.61
				c0.12-0.22,0.19-0.399,0.19-0.56c0-0.181-0.06-0.32-0.17-0.42C215.099,482.72,214.949,482.67,214.769,482.67z M211.109,479.6
				c0.28-0.3,0.64-0.449,1.07-0.449c0.46,0,0.83,0.149,1.11,0.449c0.29,0.301,0.45,0.75,0.49,1.351h-3.19
				C210.649,480.36,210.819,479.91,211.109,479.6z"/>
			<path style="fill:#132539;" d="M222.639,475.58c-0.14-0.17-0.35-0.25-0.61-0.25c-0.271,0-0.48,0.09-0.62,0.27
				c-0.14,0.19-0.22,0.46-0.22,0.82v2.6c-0.33-0.359-0.66-0.63-1.01-0.81c-0.35-0.17-0.78-0.26-1.28-0.26
				c-0.88,0-1.58,0.31-2.12,0.92c-0.54,0.62-0.81,1.47-0.81,2.57c0,0.52,0.07,1,0.21,1.449c0.13,0.45,0.33,0.841,0.59,1.17
				c0.26,0.33,0.57,0.58,0.93,0.761c0.36,0.18,0.75,0.27,1.17,0.27c0.32,0,0.61-0.05,0.88-0.14c0.27-0.08,0.52-0.21,0.75-0.38
				c0.23-0.17,0.46-0.391,0.69-0.66v0.17c0,0.32,0.08,0.57,0.24,0.75c0.16,0.17,0.35,0.26,0.6,0.26c0.24,0,0.44-0.09,0.59-0.25
				c0.16-0.17,0.24-0.42,0.24-0.76v-7.75C222.859,476,222.779,475.75,222.639,475.58z M220.869,482.75
				c-0.15,0.33-0.36,0.58-0.61,0.74c-0.26,0.16-0.54,0.24-0.85,0.24c-0.3,0-0.58-0.091-0.84-0.261c-0.26-0.17-0.46-0.42-0.61-0.75
				c-0.15-0.34-0.22-0.739-0.22-1.22c0-0.45,0.07-0.85,0.21-1.19c0.14-0.34,0.33-0.6,0.59-0.779c0.25-0.181,0.54-0.28,0.86-0.28
				c0.31,0,0.59,0.09,0.85,0.27c0.26,0.181,0.47,0.44,0.62,0.771c0.15,0.34,0.23,0.74,0.23,1.21
				C221.099,482,221.019,482.41,220.869,482.75z"/>
			<path style="fill:#132539;" d="M233.219,479.57c-0.24-0.521-0.58-0.92-1.02-1.2c-0.44-0.28-0.95-0.42-1.54-0.42
				c-0.5,0-0.93,0.1-1.27,0.28c-0.35,0.18-0.68,0.439-1.01,0.789v-2.689c0-0.32-0.08-0.57-0.22-0.74c-0.15-0.18-0.36-0.26-0.63-0.26
				c-0.25,0-0.45,0.09-0.6,0.27c-0.14,0.181-0.21,0.45-0.21,0.811v7.67c0,0.33,0.07,0.58,0.22,0.75c0.15,0.17,0.34,0.26,0.59,0.26
				s0.45-0.09,0.61-0.26c0.16-0.17,0.24-0.42,0.24-0.75v-0.17c0.19,0.22,0.35,0.39,0.46,0.5c0.12,0.109,0.26,0.22,0.43,0.33
				c0.17,0.1,0.37,0.189,0.61,0.25c0.24,0.06,0.49,0.1,0.76,0.1c0.44,0,0.85-0.09,1.22-0.27c0.36-0.181,0.68-0.431,0.93-0.761
				c0.26-0.319,0.46-0.71,0.59-1.149c0.14-0.45,0.2-0.93,0.2-1.47C233.579,480.72,233.459,480.1,233.219,479.57z M231.339,483.15
				c-0.32,0.39-0.7,0.58-1.14,0.58c-0.52,0-0.94-0.19-1.26-0.57c-0.32-0.37-0.48-0.91-0.48-1.61c0-0.47,0.08-0.89,0.23-1.229
				c0.15-0.351,0.35-0.61,0.61-0.79c0.27-0.181,0.56-0.28,0.9-0.28c0.32,0,0.61,0.1,0.85,0.28c0.25,0.18,0.44,0.439,0.57,0.77
				c0.13,0.34,0.2,0.74,0.2,1.2C231.819,482.22,231.659,482.77,231.339,483.15z"/>
			<path style="fill:#132539;" d="M240.009,478.33c-0.07-0.12-0.16-0.21-0.28-0.28c-0.12-0.069-0.25-0.109-0.38-0.109
				c-0.19,0-0.33,0.029-0.43,0.1c-0.1,0.06-0.2,0.19-0.29,0.37c-0.09,0.189-0.19,0.439-0.3,0.77l-1.41,4.021l-1.49-4.33
				c-0.1-0.3-0.21-0.53-0.34-0.69c-0.13-0.16-0.32-0.239-0.57-0.239c-0.15,0-0.29,0.04-0.42,0.119c-0.14,0.07-0.25,0.181-0.32,0.31
				c-0.08,0.12-0.12,0.26-0.12,0.41c0,0.149,0.07,0.37,0.2,0.689l2.16,5.44l-0.16,0.399c-0.12,0.28-0.22,0.5-0.32,0.65
				c-0.09,0.15-0.19,0.25-0.31,0.31c-0.11,0.061-0.27,0.091-0.47,0.091c-0.09,0-0.18-0.011-0.29-0.04
				c-0.09-0.021-0.19-0.04-0.28-0.04c-0.24,0-0.42,0.06-0.54,0.17c-0.13,0.109-0.19,0.26-0.19,0.46c0,0.3,0.13,0.5,0.39,0.62
				c0.26,0.109,0.64,0.16,1.16,0.16c0.521,0,0.94-0.08,1.25-0.24c0.32-0.16,0.57-0.391,0.75-0.69c0.19-0.3,0.39-0.71,0.58-1.24
				l2.3-6c0.05-0.159,0.1-0.31,0.14-0.46c0.039-0.149,0.06-0.27,0.08-0.35C240.109,478.58,240.079,478.45,240.009,478.33z"/>
		</g>
		<g>
			<path style="fill:#132539;" d="M261.319,478.093h0.419v-0.527c0-0.552,0.067-0.987,0.207-1.313
				c0.139-0.324,0.377-0.56,0.71-0.708c0.332-0.147,0.788-0.222,1.367-0.222c1.029,0,1.54,0.249,1.54,0.755
				c0,0.162-0.054,0.302-0.163,0.417c-0.104,0.115-0.232,0.174-0.378,0.174c-0.067,0-0.188-0.013-0.357-0.04
				c-0.161-0.022-0.307-0.038-0.422-0.038c-0.317,0-0.52,0.096-0.614,0.281c-0.086,0.186-0.132,0.453-0.132,0.803v0.418h0.429
				c0.672,0,1.004,0.201,1.004,0.607c0,0.284-0.086,0.468-0.267,0.545c-0.177,0.078-0.423,0.116-0.737,0.116h-0.429v4.656
				c0,0.347-0.082,0.61-0.25,0.792c-0.164,0.185-0.376,0.275-0.639,0.275c-0.249,0-0.455-0.091-0.622-0.275
				c-0.166-0.182-0.247-0.445-0.247-0.792v-4.656h-0.484c-0.263,0-0.462-0.057-0.605-0.178c-0.142-0.115-0.213-0.271-0.213-0.459
				C260.435,478.302,260.73,478.093,261.319,478.093L261.319,478.093z"/>
			<path style="fill:#132539;" d="M267.072,482.549v1.469c0,0.355-0.09,0.623-0.253,0.8c-0.168,0.18-0.379,0.268-0.636,0.268
				c-0.259,0-0.466-0.089-0.628-0.271c-0.16-0.179-0.244-0.444-0.244-0.796v-4.895c0-0.79,0.284-1.185,0.854-1.185
				c0.294,0,0.503,0.092,0.633,0.276c0.128,0.186,0.199,0.457,0.215,0.819c0.208-0.362,0.423-0.634,0.643-0.819
				c0.225-0.185,0.517-0.276,0.888-0.276c0.372,0,0.727,0.092,1.074,0.276c0.349,0.186,0.522,0.432,0.522,0.735
				c0,0.214-0.075,0.394-0.221,0.53c-0.149,0.142-0.308,0.211-0.478,0.211c-0.067,0-0.225-0.043-0.47-0.122
				c-0.247-0.077-0.467-0.117-0.652-0.117c-0.258,0-0.47,0.069-0.632,0.202c-0.164,0.139-0.291,0.337-0.382,0.601
				c-0.088,0.268-0.148,0.587-0.185,0.952C267.088,481.573,267.072,482.022,267.072,482.549L267.072,482.549z"/>
			<path style="fill:#132539;" d="M275.889,482.67c-0.16,0-0.29,0.04-0.38,0.12c-0.22,0.2-0.399,0.37-0.54,0.479
				c-0.14,0.131-0.279,0.24-0.449,0.341c-0.16,0.109-0.33,0.189-0.5,0.229c-0.181,0.061-0.37,0.08-0.58,0.08
				c-0.311,0-0.601-0.08-0.86-0.229c-0.26-0.16-0.47-0.391-0.63-0.69c-0.15-0.3-0.23-0.66-0.24-1.06h3.44
				c0.46,0,0.819-0.06,1.069-0.19c0.25-0.14,0.38-0.42,0.38-0.86c0-0.479-0.12-0.939-0.37-1.409c-0.239-0.461-0.609-0.83-1.1-1.12
				c-0.49-0.29-1.08-0.431-1.77-0.431c-0.53,0-1.011,0.08-1.441,0.25c-0.43,0.17-0.8,0.41-1.09,0.73c-0.3,0.32-0.53,0.7-0.68,1.14
				c-0.16,0.45-0.23,0.931-0.23,1.45c0,1.1,0.31,1.98,0.941,2.62c0.619,0.64,1.5,0.96,2.63,0.96c0.489,0,0.93-0.061,1.31-0.191
				c0.38-0.13,0.7-0.29,0.95-0.479c0.25-0.2,0.44-0.4,0.57-0.62c0.12-0.21,0.18-0.39,0.18-0.55c0-0.181-0.06-0.32-0.17-0.42
				C276.219,482.72,276.069,482.67,275.889,482.67z M272.228,479.6c0.28-0.3,0.641-0.449,1.07-0.449c0.471,0,0.83,0.149,1.12,0.449
				c0.28,0.29,0.441,0.74,0.48,1.341h-3.19C271.77,480.35,271.939,479.91,272.228,479.6z"/>
			<path style="fill:#132539;" d="M283.199,482.67c-0.16,0-0.29,0.04-0.38,0.12c-0.221,0.2-0.4,0.37-0.54,0.479
				c-0.141,0.131-0.28,0.24-0.45,0.341c-0.16,0.109-0.33,0.189-0.51,0.229c-0.17,0.061-0.36,0.08-0.57,0.08
				c-0.31,0-0.6-0.08-0.86-0.229c-0.26-0.16-0.47-0.391-0.619-0.69c-0.16-0.3-0.24-0.66-0.25-1.06h3.44c0.46,0,0.82-0.06,1.07-0.19
				c0.25-0.14,0.38-0.42,0.38-0.86c0-0.479-0.12-0.939-0.37-1.409c-0.24-0.461-0.61-0.83-1.1-1.12c-0.5-0.29-1.08-0.431-1.771-0.431
				c-0.53,0-1.01,0.08-1.44,0.25c-0.439,0.17-0.8,0.41-1.09,0.73c-0.3,0.32-0.529,0.7-0.68,1.14c-0.16,0.45-0.24,0.931-0.24,1.45
				c0,1.1,0.32,1.98,0.95,2.62c0.62,0.64,1.5,0.96,2.63,0.96c0.49,0,0.93-0.061,1.311-0.191c0.38-0.13,0.699-0.29,0.949-0.479
				c0.25-0.2,0.44-0.4,0.56-0.62c0.13-0.21,0.18-0.39,0.18-0.55c0-0.181-0.05-0.32-0.16-0.42
				C283.529,482.72,283.379,482.67,283.199,482.67z M279.529,479.6c0.29-0.3,0.649-0.449,1.08-0.449c0.46,0,0.83,0.149,1.119,0.449
				c0.28,0.29,0.44,0.74,0.481,1.341h-3.19C279.079,480.35,279.249,479.91,279.529,479.6z"/>
			<path style="fill:#132539;" d="M291.509,481.29c-0.02-0.65-0.149-1.21-0.38-1.7c-0.27-0.53-0.63-0.939-1.08-1.22
				c-0.46-0.28-0.96-0.42-1.5-0.42c-0.45,0-0.85,0.1-1.2,0.29c-0.359,0.189-0.71,0.49-1.04,0.899v-0.21
				c0-0.33-0.069-0.569-0.229-0.739c-0.16-0.171-0.36-0.25-0.61-0.25s-0.449,0.079-0.6,0.239c-0.15,0.17-0.22,0.42-0.22,0.761v7.579
				c0,0.391,0.06,0.671,0.159,0.881c0.11,0.189,0.33,0.29,0.66,0.29c0.561,0,0.84-0.391,0.84-1.16v-2.63
				c0.181,0.22,0.36,0.409,0.551,0.569c0.14,0.12,0.279,0.221,0.43,0.311c0.34,0.2,0.76,0.3,1.26,0.3c0.42,0,0.811-0.08,1.17-0.24
				c0.37-0.17,0.681-0.41,0.95-0.71c0.26-0.31,0.47-0.69,0.63-1.14c0.15-0.45,0.221-0.95,0.221-1.49
				C291.52,481.43,291.52,481.36,291.509,481.29z M289.529,482.71c-0.15,0.34-0.34,0.59-0.601,0.76
				c-0.239,0.17-0.52,0.261-0.81,0.261c-0.06,0-0.12,0-0.17-0.021c-0.42-0.03-0.771-0.229-1.06-0.57
				c-0.33-0.38-0.489-0.93-0.489-1.63c0-0.74,0.159-1.3,0.5-1.689c0.329-0.38,0.739-0.57,1.22-0.57c0.31,0,0.59,0.09,0.84,0.27
				c0.25,0.181,0.44,0.431,0.58,0.771c0.15,0.33,0.22,0.729,0.22,1.19c0,0.43-0.06,0.8-0.189,1.109
				C289.559,482.63,289.549,482.67,289.529,482.71z"/>
			<path style="fill:#132539;" d="M293.909,478.2c-0.17-0.181-0.38-0.26-0.64-0.26c-0.25,0-0.461,0.079-0.62,0.26
				c-0.16,0.18-0.25,0.439-0.25,0.79v5.029c0,0.341,0.09,0.601,0.25,0.79c0.159,0.181,0.37,0.271,0.62,0.271
				c0.26,0,0.47-0.08,0.64-0.271c0.17-0.18,0.25-0.44,0.25-0.79v-5.079C294.159,478.62,294.079,478.38,293.909,478.2z
				 M293.899,475.62c-0.181-0.15-0.38-0.22-0.61-0.22c-0.23,0-0.44,0.08-0.62,0.239c-0.18,0.16-0.27,0.37-0.27,0.62
				c0,0.271,0.09,0.48,0.27,0.63c0.17,0.15,0.38,0.23,0.62,0.23c0.24,0,0.439-0.08,0.62-0.23c0.17-0.149,0.25-0.359,0.25-0.63
				C294.159,475.98,294.069,475.76,293.899,475.62z"/>
			<path style="fill:#132539;" d="M299.827,484.282l-1.548-2.552l-0.954,0.9v1.399c0,0.339-0.09,0.598-0.269,0.779
				c-0.175,0.185-0.384,0.275-0.614,0.275c-0.27,0-0.484-0.089-0.638-0.271c-0.153-0.179-0.232-0.444-0.232-0.796v-7.498
				c0-0.388,0.077-0.685,0.224-0.89c0.151-0.207,0.369-0.307,0.646-0.307c0.271,0,0.483,0.093,0.644,0.279
				c0.158,0.183,0.239,0.456,0.239,0.814v4.265l1.977-2.075c0.245-0.255,0.429-0.435,0.561-0.527
				c0.128-0.095,0.283-0.142,0.467-0.142c0.221,0,0.402,0.07,0.553,0.209c0.143,0.14,0.217,0.316,0.217,0.524
				c0,0.257-0.239,0.603-0.715,1.031l-0.933,0.855l1.802,2.835c0.131,0.213,0.229,0.368,0.287,0.478
				c0.058,0.107,0.088,0.217,0.088,0.313c0,0.28-0.077,0.498-0.23,0.661c-0.152,0.161-0.354,0.24-0.601,0.24
				c-0.214,0-0.382-0.055-0.497-0.174C300.185,484.794,300.024,484.584,299.827,484.282L299.827,484.282z"/>
			<path style="fill:#132539;" d="M303.646,485.085c-0.265,0-0.492-0.086-0.686-0.258c-0.192-0.169-0.291-0.411-0.291-0.722
				c0-0.262,0.094-0.487,0.278-0.675c0.186-0.189,0.412-0.283,0.684-0.283c0.268,0,0.498,0.094,0.692,0.279
				c0.19,0.187,0.286,0.414,0.286,0.679c0,0.307-0.097,0.547-0.286,0.718C304.129,484.999,303.903,485.085,303.646,485.085
				L303.646,485.085z"/>
			<path style="fill:#132539;" d="M312.389,482.909c0,0.218-0.066,0.453-0.197,0.701c-0.13,0.251-0.331,0.486-0.601,0.712
				c-0.268,0.225-0.604,0.408-1.013,0.544c-0.407,0.137-0.868,0.208-1.376,0.208c-1.089,0-1.938-0.318-2.547-0.949
				c-0.607-0.635-0.912-1.484-0.912-2.549c0-0.723,0.138-1.359,0.419-1.914c0.276-0.552,0.681-0.98,1.208-1.283
				c0.527-0.304,1.162-0.454,1.894-0.454c0.456,0,0.873,0.066,1.255,0.2c0.38,0.132,0.7,0.306,0.966,0.515
				c0.262,0.213,0.465,0.436,0.603,0.672c0.14,0.238,0.208,0.462,0.208,0.669c0,0.209-0.077,0.388-0.232,0.534
				c-0.159,0.146-0.35,0.22-0.568,0.22c-0.148,0-0.27-0.039-0.367-0.113c-0.097-0.076-0.206-0.196-0.324-0.367
				c-0.215-0.324-0.438-0.57-0.675-0.731c-0.232-0.164-0.528-0.245-0.89-0.245c-0.517,0-0.939,0.202-1.257,0.608
				c-0.316,0.403-0.477,0.962-0.477,1.663c0,0.331,0.043,0.637,0.124,0.913c0.079,0.276,0.197,0.513,0.353,0.708
				c0.156,0.194,0.342,0.342,0.561,0.443c0.22,0.103,0.461,0.152,0.721,0.152c0.353,0,0.655-0.081,0.905-0.244
				c0.255-0.163,0.477-0.411,0.669-0.747c0.107-0.197,0.222-0.351,0.345-0.463c0.124-0.111,0.277-0.169,0.458-0.169
				c0.215,0,0.393,0.083,0.533,0.245C312.316,482.551,312.389,482.727,312.389,482.909L312.389,482.909z"/>
			<path style="fill:#132539;" d="M319.728,480.06c-0.159-0.43-0.39-0.81-0.699-1.13c-0.311-0.319-0.681-0.56-1.11-0.729
				c-0.44-0.181-0.92-0.26-1.45-0.26c-0.529,0-1.01,0.079-1.439,0.25c-0.431,0.17-0.801,0.409-1.11,0.729
				c-0.3,0.311-0.54,0.691-0.7,1.13c-0.16,0.44-0.24,0.931-0.24,1.46c0,0.53,0.08,1.01,0.231,1.45c0.17,0.43,0.4,0.81,0.72,1.13
				c0.3,0.32,0.681,0.57,1.101,0.74c0.42,0.17,0.899,0.26,1.439,0.26c0.53,0,1.01-0.09,1.45-0.26c0.42-0.17,0.79-0.41,1.101-0.73
				c0.31-0.319,0.55-0.699,0.709-1.14c0.16-0.44,0.24-0.93,0.24-1.45C319.969,480.98,319.889,480.5,319.728,480.06z M317.739,483.17
				c-0.32,0.41-0.74,0.61-1.271,0.61c-0.359,0-0.66-0.09-0.92-0.271c-0.26-0.189-0.46-0.45-0.6-0.8c-0.141-0.34-0.21-0.74-0.21-1.2
				c0-0.46,0.069-0.87,0.21-1.22c0.14-0.34,0.34-0.61,0.609-0.79c0.261-0.17,0.56-0.26,0.91-0.26c0.53,0,0.95,0.2,1.271,0.6
				c0.31,0.4,0.47,0.96,0.47,1.67C318.209,482.22,318.049,482.77,317.739,483.17z"/>
			<path style="fill:#132539;" d="M326.677,481.642v2.336c0,0.371-0.082,0.645-0.251,0.832c-0.169,0.185-0.387,0.276-0.662,0.276
				c-0.267,0-0.484-0.092-0.645-0.276c-0.168-0.188-0.252-0.461-0.252-0.832v-2.8c0-0.442-0.015-0.787-0.043-1.033
				c-0.031-0.239-0.114-0.443-0.246-0.598c-0.133-0.16-0.345-0.238-0.631-0.238c-0.576,0-0.953,0.196-1.136,0.597
				c-0.182,0.391-0.275,0.958-0.275,1.699v2.373c0,0.364-0.083,0.642-0.245,0.829c-0.169,0.186-0.385,0.279-0.654,0.279
				c-0.268,0-0.485-0.094-0.655-0.279c-0.17-0.188-0.255-0.465-0.255-0.829v-5.028c0-0.331,0.076-0.583,0.228-0.753
				c0.155-0.174,0.356-0.259,0.602-0.259c0.242,0,0.441,0.084,0.605,0.241c0.16,0.161,0.24,0.384,0.24,0.667v0.166
				c0.308-0.362,0.634-0.631,0.978-0.8c0.351-0.177,0.733-0.262,1.161-0.262c0.441,0,0.82,0.089,1.137,0.264
				c0.318,0.177,0.579,0.444,0.787,0.798c0.298-0.358,0.616-0.625,0.955-0.8c0.339-0.175,0.714-0.262,1.127-0.262
				c0.478,0,0.895,0.097,1.242,0.284c0.346,0.189,0.605,0.46,0.778,0.81c0.149,0.32,0.224,0.82,0.224,1.503v3.431
				c0,0.371-0.083,0.645-0.249,0.832c-0.167,0.185-0.39,0.276-0.664,0.276c-0.268,0-0.483-0.094-0.653-0.279
				c-0.17-0.188-0.255-0.465-0.255-0.829v-2.956c0-0.378-0.017-0.68-0.047-0.906c-0.032-0.229-0.12-0.421-0.26-0.574
				c-0.144-0.154-0.359-0.232-0.646-0.232c-0.232,0-0.452,0.072-0.66,0.208c-0.208,0.135-0.371,0.323-0.488,0.551
				C326.743,480.364,326.677,480.89,326.677,481.642L326.677,481.642z"/>
		</g>
		<g>
			<path style="fill:#132539;" d="M244.872,481.087c-0.002-0.003-0.002-0.006-0.002-0.012
				C244.871,481.081,244.871,481.084,244.872,481.087z"/>
			<path style="fill:#132539;" d="M244.961,481.649c0.001,0,0.001,0,0.002,0c-0.034-0.16-0.06-0.319-0.081-0.476
				C244.903,481.332,244.929,481.491,244.961,481.649z"/>
			<path style="fill:#132539;" d="M245.542,483.28c-0.004-0.007-0.007-0.015-0.012-0.022
				C245.535,483.266,245.539,483.273,245.542,483.28z"/>
			<path style="fill:#132539;" d="M245.487,483.172c-0.015-0.03-0.03-0.061-0.044-0.091
				C245.457,483.112,245.472,483.142,245.487,483.172z"/>
			<path style="fill:#132539;" d="M245.124,482.277c0.086,0.271,0.19,0.534,0.31,0.785c-0.122-0.256-0.224-0.52-0.308-0.785
				C245.126,482.277,245.125,482.277,245.124,482.277z"/>
			<path style="fill:#132539;" d="M251.675,474.353c0.34,0,0.59,0.026,0.878,0.075l0.081-0.517c0,0-0.794-0.244-1.837-0.159
				l-0.082-0.281c0.324-0.068,0.567-0.357,0.567-0.701c0-0.395-0.321-0.714-0.716-0.714c-0.395,0-0.716,0.319-0.716,0.714
				c0,0.345,0.243,0.633,0.567,0.701l0.09,0.313c-1.107,0.152-1.989,0.585-1.989,0.585l0.156,0.478
				c0.67-0.224,1.252-0.358,1.778-0.416C250.97,474.377,251.358,474.353,251.675,474.353z"/>
			<path style="fill:#132539;" d="M245.529,476.968l0.004-0.005c0.026-0.034,0.051-0.065,0.077-0.097l-0.212-0.153l-0.33-0.241
				c-0.019,0.025-0.539,0.504-0.95,1.388c-0.018-0.027-0.038-0.055-0.061-0.081c-0.123-0.134-0.295-0.202-0.514-0.198
				c-0.003,0-0.006,0-0.01,0c-0.135,0-0.228-0.046-0.289-0.101c0.061-0.076,0.097-0.173,0.097-0.28c0-0.249-0.203-0.453-0.454-0.453
				c-0.249,0-0.453,0.204-0.453,0.453c0,0.251,0.204,0.454,0.453,0.454c0.04,0,0.077-0.007,0.113-0.014
				c0.111,0.123,0.288,0.232,0.547,0.226c0.133-0.001,0.231,0.033,0.296,0.105c0.075,0.082,0.1,0.2,0.108,0.29
				c-0.001,0.001-0.001,0.003-0.002,0.003c-0.295,0.807-0.211,1.81-0.211,1.81l0.716,0.028c0.015-0.365,0.067-1.004,0.252-1.512
				C245.064,477.608,245.511,476.994,245.529,476.968z"/>
			<path style="fill:#132539;" d="M257.909,474.952c-0.249,0-0.453,0.202-0.453,0.453c0,0.039,0.006,0.076,0.016,0.112
				c-0.124,0.112-0.232,0.29-0.228,0.549c0.002,0.134-0.032,0.23-0.104,0.296c-0.058,0.051-0.13,0.078-0.2,0.096
				c-0.533-0.747-1.191-1.203-1.191-1.203l-0.514,0.551c0.389,0.354,0.785,0.797,1.171,1.349c0.267,0.382,0.542,0.875,0.77,1.366
				l0.693-0.33c0,0-0.316-0.783-0.763-1.485c0.077-0.027,0.155-0.069,0.225-0.13c0.136-0.123,0.202-0.296,0.198-0.514
				c-0.001-0.142,0.045-0.236,0.101-0.3c0.077,0.06,0.174,0.098,0.279,0.098c0.252,0,0.454-0.204,0.454-0.454
				C258.363,475.154,258.161,474.952,257.909,474.952z"/>
			<path style="fill:#132539;" d="M256.108,481.189c-0.955,0.466-2.527,1.08-4.596,1.369c-0.812,0.112-1.599,0.154-2.324,0.154
				c-0.942,0-1.775-0.07-2.414-0.151c-0.729-0.092-1.3-0.204-1.648-0.283c0.084,0.266,0.186,0.529,0.308,0.785
				c0.002,0.007,0.005,0.014,0.008,0.019c0.015,0.029,0.029,0.061,0.044,0.091c0.015,0.029,0.029,0.059,0.044,0.086
				c0.004,0.008,0.008,0.016,0.012,0.022c0.205,0.387,0.452,0.742,0.732,1.05c0.976,1.067,1.97,1.236,1.98,1.237l0.016,0.002
				l0.015,0.005c0.009,0.004,0.89,0.288,2.23,0.288c1.319,0,2.613-0.266,3.845-0.791c0.913-0.467,1.777-1.177,2.205-1.81
				c0.331-0.489,0.57-1.012,0.712-1.555c0.075-0.288,0.135-0.75,0.1-1.236C257.108,480.651,256.684,480.908,256.108,481.189z"/>
			<path style="fill:#132539;" d="M256.089,477.37c-1.35-1.94-2.819-2.44-3.569-2.56c-0.29-0.05-0.521-0.069-0.841-0.069
				c-0.31,0-0.68,0.02-1.189,0.069c-0.5,0.051-1.06,0.19-1.71,0.41c-0.92,0.3-1.74,0.78-2.39,1.38l-0.02,0.02
				c-0.1,0.09-0.3,0.28-0.53,0.57c-0.03,0.04-0.45,0.63-0.77,1.529c-0.25,0.681-0.24,1.66-0.24,1.67c0,0.23,0.02,0.46,0.04,0.691
				c0,0,0,0,0,0.01c0.01,0.03,0.01,0.05,0.01,0.08c0.02,0.16,0.05,0.32,0.08,0.48c0.48,0.119,3.31,0.779,6.47,0.34
				c1.99-0.28,3.49-0.86,4.41-1.311c0.76-0.359,1.25-0.699,1.44-0.84C257.089,479.15,256.569,478.05,256.089,477.37z
				 M248.569,480.51c-1.06,0-1.91-0.85-1.91-1.91c0-1.05,0.85-1.899,1.91-1.899c1.05,0,1.91,0.85,1.91,1.899
				C250.479,479.66,249.619,480.51,248.569,480.51z M254.149,479.11c-0.65,0-1.181-0.53-1.181-1.191c0-0.65,0.53-1.18,1.181-1.18
				c0.649,0,1.18,0.529,1.18,1.18C255.329,478.58,254.799,479.11,254.149,479.11z"/>
		</g>
	</g>
</g>
</svg>
